<svg width="34" height="30" viewBox="0 0 34 30" fill="none" xmlns="http://www.w3.org/2000/svg">
<path d="M4.20081 12.4273C4.20081 10.9571 5.39267 9.76522 6.86292 9.76522V9.76522C7.81493 9.76522 8.69448 9.25684 9.16968 8.43191L10.2687 6.52412C10.615 5.92285 10.7882 5.62221 11.0328 5.40575C11.2335 5.22818 11.4678 5.09275 11.7219 5.00749C12.0315 4.90356 12.3785 4.90356 13.0724 4.90356H20.5342C21.2281 4.90356 21.575 4.90356 21.8847 5.00749C22.1387 5.09275 22.373 5.22818 22.5737 5.40575C22.8183 5.62221 22.9915 5.92285 23.3379 6.52412L24.4369 8.43191C24.9121 9.25684 25.7916 9.76522 26.7436 9.76522V9.76522C28.2139 9.76522 29.4057 10.9571 29.4057 12.4273V18.3502C29.4057 21.1786 29.4057 22.5928 28.527 23.4715C27.6484 24.3502 26.2342 24.3502 23.4057 24.3502H10.2008C7.37238 24.3502 5.95816 24.3502 5.07949 23.4715C4.20081 22.5928 4.20081 21.1786 4.20081 18.3502V12.4273Z" stroke="#364C65" stroke-width="3"/>
<path d="M20.9043 15.8422C20.9043 17.5065 19.2746 19.2039 16.8032 19.2039C14.3318 19.2039 12.7021 17.5065 12.7021 15.8422C12.7021 14.178 14.3318 12.4806 16.8032 12.4806C19.2746 12.4806 20.9043 14.178 20.9043 15.8422Z" stroke="#364C65" stroke-width="3"/>
</svg>
