<svg width="36" height="34" viewBox="0 0 36 34" fill="none" xmlns="http://www.w3.org/2000/svg">
<path d="M22.9354 15.2242L18.5477 19.367L15.6225 16.6052L11.2347 20.748" stroke="#364C65" stroke-width="3" stroke-linecap="round" stroke-linejoin="round"/>
<path d="M20.7416 7.62915H9.31572C8.19562 7.62915 7.63557 7.62915 7.20774 7.84714C6.83142 8.03888 6.52546 8.34485 6.33371 8.72117C6.11572 9.14899 6.11572 9.70905 6.11572 10.8292V25.1431C6.11572 26.2632 6.11572 26.8232 6.33371 27.2511C6.52546 27.6274 6.83142 27.9334 7.20774 28.1251C7.63557 28.3431 8.19562 28.3431 9.31572 28.3431H24.8545C25.9746 28.3431 26.5347 28.3431 26.9625 28.1251C27.3388 27.9334 27.6448 27.6274 27.8365 27.2511C28.0545 26.8232 28.0545 26.2632 28.0545 25.1431V14.5338" stroke="#364C65" stroke-width="3" stroke-linecap="round"/>
<ellipse cx="28.0544" cy="7.62917" rx="2.92517" ry="2.76186" fill="#364C65"/>
</svg>
