<svg width="35" height="32" viewBox="0 0 35 32" fill="none" xmlns="http://www.w3.org/2000/svg">
<path d="M29.6491 6.97468L28.4474 7.87243V7.87243L29.6491 6.97468ZM29.6491 22.2886L28.4474 21.3909L29.6491 22.2886ZM27.8399 23.9068L27.0704 22.6192H27.0704L27.8399 23.9068ZM20.9181 24.8932L20.9122 23.3932C20.0861 23.3964 19.4181 24.067 19.4181 24.8932H20.9181ZM20.9181 24.8952L22.2274 25.6271C22.3524 25.4034 22.4181 25.1514 22.4181 24.8952H20.9181ZM18.5123 29.1987L19.8216 29.9306L19.8216 29.9306L18.5123 29.1987ZM16.7665 29.1987L15.4573 29.9306L15.4573 29.9306L16.7665 29.1987ZM14.3607 24.8952H12.8607C12.8607 25.1514 12.9264 25.4034 13.0514 25.6271L14.3607 24.8952ZM14.3607 24.8932H15.8607C15.8607 24.067 15.1927 23.3964 14.3666 23.3932L14.3607 24.8932ZM7.43895 23.9068L8.20843 22.6192H8.20843L7.43895 23.9068ZM5.62978 22.2886L4.42809 23.1864H4.42809L5.62978 22.2886ZM5.62978 6.97468L6.83146 7.87243L5.62978 6.97468ZM7.43895 5.35657L6.66947 4.06898L7.43895 5.35657ZM27.8399 5.35657L27.0704 6.64416V6.64416L27.8399 5.35657ZM32.2542 14.6317C32.2542 12.6073 32.2564 10.9628 32.1064 9.64394C31.9525 8.29049 31.6237 7.11164 30.8507 6.07693L28.4474 7.87243C28.7795 8.31697 29.0033 8.90737 29.1256 9.98298C29.2519 11.0931 29.2542 12.5376 29.2542 14.6317H32.2542ZM30.8507 23.1864C31.6237 22.1517 31.9525 20.9728 32.1064 19.6194C32.2564 18.3005 32.2542 16.6561 32.2542 14.6317H29.2542C29.2542 16.7257 29.2519 18.1702 29.1256 19.2803C29.0033 20.356 28.7795 20.9464 28.4474 21.3909L30.8507 23.1864ZM28.6094 25.1943C29.4861 24.6704 30.25 23.9905 30.8507 23.1864L28.4474 21.3909C28.0913 21.8676 27.6257 22.2873 27.0704 22.6192L28.6094 25.1943ZM20.924 26.3932C22.6861 26.3863 24.1395 26.3566 25.3477 26.2072C26.574 26.0556 27.6446 25.7709 28.6094 25.1943L27.0704 22.6192C26.5903 22.9061 25.9687 23.1076 24.9796 23.2299C23.9724 23.3544 22.6873 23.3862 20.9122 23.3932L20.924 26.3932ZM22.4181 24.8952V24.8932H19.4181V24.8952H22.4181ZM19.8216 29.9306L22.2274 25.6271L19.6088 24.1632L17.203 28.4667L19.8216 29.9306ZM15.4573 29.9306C16.4114 31.6374 18.8674 31.6374 19.8216 29.9306L17.203 28.4667C17.3938 28.1254 17.885 28.1254 18.0758 28.4667L15.4573 29.9306ZM13.0514 25.6271L15.4573 29.9306L18.0758 28.4667L15.67 24.1632L13.0514 25.6271ZM12.8607 24.8932V24.8952H15.8607V24.8932H12.8607ZM6.66947 25.1943C7.6342 25.7709 8.70487 26.0556 9.93115 26.2072C11.1394 26.3566 12.5927 26.3863 14.3549 26.3932L14.3666 23.3932C12.5915 23.3862 11.3064 23.3544 10.2992 23.2299C9.31015 23.1076 8.68854 22.9061 8.20843 22.6192L6.66947 25.1943ZM4.42809 23.1864C5.02882 23.9905 5.79277 24.6704 6.66947 25.1943L8.20843 22.6192C7.65313 22.2873 7.18756 21.8676 6.83146 21.3909L4.42809 23.1864ZM3.02466 14.6317C3.02466 16.6561 3.0224 18.3005 3.17241 19.6194C3.32635 20.9728 3.65508 22.1517 4.42809 23.1864L6.83146 21.3909C6.49935 20.9464 6.27553 20.356 6.15319 19.2803C6.02692 18.1702 6.02466 16.7257 6.02466 14.6317H3.02466ZM4.42809 6.07693C3.65508 7.11164 3.32635 8.2905 3.17241 9.64394C3.0224 10.9628 3.02466 12.6073 3.02466 14.6317H6.02466C6.02466 12.5376 6.02692 11.0931 6.15319 9.98298C6.27553 8.90737 6.49935 8.31697 6.83146 7.87243L4.42809 6.07693ZM6.66947 4.06898C5.79277 4.5929 5.02882 5.27283 4.42809 6.07693L6.83146 7.87243C7.18756 7.39577 7.65313 6.97602 8.20843 6.64416L6.66947 4.06898ZM16.0001 2.86816C13.7256 2.86816 11.9188 2.86671 10.477 2.99789C9.01765 3.13066 7.77284 3.40959 6.66947 4.06898L8.20843 6.64416C8.75899 6.31515 9.49234 6.09987 10.7488 5.98554C12.023 5.86962 13.6697 5.86816 16.0001 5.86816V2.86816ZM19.2788 2.86816H16.0001V5.86816H19.2788V2.86816ZM28.6094 4.06898C27.506 3.40959 26.2612 3.13066 24.8018 2.99789C23.3601 2.86671 21.5532 2.86816 19.2788 2.86816V5.86816C21.6091 5.86816 23.2558 5.86962 24.53 5.98554C25.7865 6.09987 26.5198 6.31515 27.0704 6.64416L28.6094 4.06898ZM30.8507 6.07693C30.25 5.27283 29.4861 4.5929 28.6094 4.06898L27.0704 6.64416C27.6257 6.97602 28.0913 7.39577 28.4474 7.87243L30.8507 6.07693Z" fill="#364C65"/>
<ellipse cx="24.1967" cy="14.7501" rx="1.63934" ry="1.46621" fill="#364C65" stroke="#364C65" stroke-linecap="round"/>
<ellipse cx="17.6393" cy="14.7501" rx="1.63934" ry="1.46621" fill="#364C65" stroke="#364C65" stroke-linecap="round"/>
<ellipse cx="11.082" cy="14.7501" rx="1.63934" ry="1.46621" fill="#364C65" stroke="#364C65" stroke-linecap="round"/>
</svg>
