<svg width="72" height="57" viewBox="0 0 72 57" fill="none" xmlns="http://www.w3.org/2000/svg">
<g clip-path="url(#clip0_17_3098)">
<path d="M1.90387e-05 13.7722C0.235558 12.7398 0.415312 11.695 0.719031 10.6872C2.65291 4.36955 7.91531 0.319628 14.5599 0.0123504C16.6984 -0.0859808 18.3533 1.26605 18.5331 3.27564C18.688 4.9841 17.2996 6.58195 15.3657 6.90152C14.5413 7.03672 13.6798 7.05515 12.8864 7.28254C9.4587 8.26583 7.28308 11.1665 7.09093 14.9645C7.04754 15.7941 7.08473 16.6238 7.08473 17.6132C7.64878 17.6378 8.14465 17.6808 8.63432 17.6808C14.2562 17.687 19.8719 17.6808 25.4938 17.687C29.969 17.687 32.3368 20.0407 32.3368 24.4532C32.3368 33.1369 32.3368 41.8205 32.3306 50.5042C32.3306 54.4988 29.938 56.957 25.9029 56.9816C19.438 57.0246 12.9794 57.0123 6.51448 56.9816C3.03101 56.9632 1.32647 55.5436 -0.00617935 51.6964C2.06436e-05 39.0489 1.79341e-05 26.4075 1.90387e-05 13.7722ZM25.2211 24.6867C19.5186 24.6867 14.0021 24.7175 8.48556 24.6622C7.35746 24.6499 7.05994 24.994 7.06614 26.0818C7.10333 33.6039 7.10333 41.1199 7.05994 48.6421C7.05374 49.6684 7.33886 50.0003 8.40498 49.9941C13.6488 49.9511 18.8926 49.9818 24.1364 49.9818C24.4897 49.9818 24.8492 49.9019 25.2273 49.8589C25.2211 41.4641 25.2211 33.1737 25.2211 24.6867Z" fill="#FAB437"/>
<path d="M46.7604 17.6807C49.1839 17.6807 51.5145 17.6807 53.8513 17.6807C57.6943 17.6807 61.5372 17.6684 65.374 17.6807C69.4401 17.6991 71.9691 20.1512 71.9815 24.1827C72.0063 32.9647 72.0125 41.7405 71.9815 50.5225C71.9629 54.4803 69.4711 56.9569 65.4794 56.9753C59.0579 57.0061 52.6426 56.9999 46.2211 56.9753C42.0001 56.9569 39.6509 54.5663 39.6509 50.3627C39.6509 38.5633 39.6447 26.7638 39.6509 14.9643C39.6571 8.27799 44.0765 2.3844 50.5228 0.565317C51.8058 0.20273 53.1881 0.0613845 54.5269 0.0183624C56.4546 -0.0492377 57.8492 1.27206 58.0104 3.10343C58.1839 5.05157 57.0496 6.5941 55.0848 6.83993C53.0145 7.09804 51.0372 7.43605 49.4195 8.91098C46.8534 11.2647 46.4753 14.2515 46.7604 17.6807ZM46.7356 49.8404C47.0331 49.9018 47.2129 49.9633 47.3864 49.9633C52.8658 49.9694 58.3451 49.951 63.8244 49.9879C64.872 49.994 64.9153 49.4593 64.9153 48.6789C64.9029 41.1075 64.8844 33.5424 64.9277 25.971C64.9339 24.9079 64.5806 24.6436 63.5517 24.6497C58.3513 24.6928 53.1571 24.6682 47.9567 24.6743C47.56 24.6743 47.1571 24.7419 46.7294 24.7788C46.7356 33.1921 46.7356 41.4517 46.7356 49.8404Z" fill="#FAB437"/>
</g>
<defs>
<clipPath id="clip0_17_3098">
<rect width="72" height="57" fill="white" transform="translate(72 57.0001) rotate(-180)"/>
</clipPath>
</defs>
</svg>
