<svg width="35" height="35" viewBox="0 0 35 35" fill="none" xmlns="http://www.w3.org/2000/svg">
<path d="M26.8739 11.3489V7.24862C27.4505 6.99538 27.9387 6.59345 28.2817 6.08962C28.6247 5.58579 28.8084 5.00078 28.8113 4.40268V4.30852C28.8113 2.56469 27.3069 1.15102 25.4511 1.15102H25.3509C24.4597 1.15102 23.6051 1.48368 22.9749 2.07583C22.3448 2.66798 21.9908 3.4711 21.9908 4.30852V4.40268C21.9937 5.00078 22.1773 5.58579 22.5203 6.08962C22.8633 6.59345 23.3516 6.99538 23.9282 7.24862V11.3489C22.2709 11.5874 20.7101 12.2331 19.4038 13.2207L7.43665 4.46197C7.52201 4.1725 7.56655 3.87488 7.5715 3.57611C7.57297 2.87242 7.35231 2.18413 6.93743 1.5983C6.52256 1.01247 5.93212 0.555423 5.24079 0.284965C4.54945 0.0145065 3.78828 -0.057209 3.05356 0.0788894C2.31884 0.214988 1.64359 0.552786 1.1132 1.04956C0.582814 1.54632 0.221129 2.17975 0.0738936 2.8697C-0.0733415 3.55965 0.000495285 4.27514 0.286051 4.92566C0.571607 5.57618 1.05605 6.13251 1.67813 6.52427C2.3002 6.91603 3.03194 7.12563 3.7808 7.12655C4.43594 7.12365 5.07882 6.9593 5.64522 6.6499L17.4293 15.2668C16.3707 16.7695 15.8184 18.5372 15.8444 20.3392C15.8705 22.1412 16.4736 23.8941 17.5753 25.3693L13.9912 28.7384C13.7015 28.6514 13.3996 28.6051 13.0955 28.6012C12.4808 28.6017 11.88 28.7734 11.3691 29.0946C10.8582 29.4158 10.4601 29.8721 10.2251 30.4058C9.99011 30.9396 9.92875 31.5268 10.0488 32.0933C10.1688 32.6598 10.4649 33.1801 10.8995 33.5886C11.3342 33.997 11.8879 34.2752 12.4908 34.388C13.0937 34.5008 13.7186 34.4431 14.2866 34.2223C14.8546 34.0015 15.3402 33.6274 15.682 33.1473C16.0238 32.6672 16.2065 32.1027 16.207 31.5251C16.203 31.2393 16.1538 30.9556 16.061 30.6834L19.6067 27.3503C20.763 28.1868 22.1076 28.7635 23.5377 29.0362C24.9677 29.3089 26.4452 29.2704 27.857 28.9236C29.2688 28.5768 30.5773 27.931 31.6825 27.0356C32.7876 26.1402 33.6599 25.019 34.2327 23.7579C34.8055 22.4967 35.0634 21.1291 34.9868 19.7598C34.9102 18.3905 34.5011 17.0559 33.7908 15.8581C33.0805 14.6603 32.0878 13.6312 30.8889 12.8496C29.69 12.0681 28.3166 11.5547 26.8739 11.3489ZM25.4041 24.8346C24.7488 24.8515 24.0966 24.7449 23.4859 24.5209C22.8752 24.297 22.3185 23.9603 21.8486 23.5307C21.3787 23.1012 21.0052 22.5875 20.7502 22.02C20.4952 21.4525 20.3638 20.8428 20.3638 20.2268C20.3638 19.6108 20.4952 19.001 20.7502 18.4336C21.0052 17.8661 21.3787 17.3524 21.8486 16.9228C22.3185 16.4933 22.8752 16.1566 23.4859 15.9327C24.0966 15.7087 24.7488 15.6021 25.4041 15.619C26.6742 15.6608 27.8774 16.1641 28.7604 17.023C29.6434 17.8818 30.1372 19.0292 30.1378 20.2234C30.1385 21.4176 29.6459 22.5654 28.7638 23.4251C27.8818 24.2848 26.6791 24.7892 25.4091 24.8322" fill="#FF7A59"/>
</svg>
