<svg width="29" height="29" viewBox="0 0 29 29" fill="none" xmlns="http://www.w3.org/2000/svg">
<path d="M21.6808 4.97879C16.8554 4.62373 11.4804 4.62374 6.65483 4.97879C5.64469 5.05311 4.87932 5.84543 4.80338 6.8139C4.55979 9.91974 4.52739 14.5729 4.75074 17.6756C4.82451 18.7005 5.70289 19.5801 6.89123 19.5801H10.6165V24.2875L6.89882 24.2848C3.48839 24.2848 0.42721 21.6954 0.162782 18.0221C-0.0779534 14.6781 -0.0447034 9.78286 0.21773 6.43653C0.480736 3.08288 3.11334 0.514728 6.32524 0.278402C11.3703 -0.0927997 16.9655 -0.0928013 22.0105 0.278401C25.2224 0.514726 27.855 3.08288 28.118 6.43653C28.3805 9.78286 28.3689 14.6781 28.1282 18.0221C27.8638 21.6954 24.8097 24.2953 21.3993 24.2953L17.7201 24.2926L10.6165 29V24.2875L17.7201 19.5801H21.3998C22.5881 19.5801 23.4665 18.7005 23.5403 17.6756C23.7636 14.5729 23.7759 9.91974 23.5323 6.8139C23.4564 5.84543 22.691 5.05311 21.6808 4.97879Z" fill="#FE5000"/>
</svg>
