<svg width="27" height="27" viewBox="0 0 27 27" fill="none" xmlns="http://www.w3.org/2000/svg">
<rect x="4.92627" y="17.6063" width="17.4661" height="4.36652" rx="2.18326" stroke="#364C65" stroke-width="2"/>
<path d="M5.83576 12.4208L9.29279 17.6063H18.0258L21.4828 12.4208C21.9182 11.7677 22.1359 11.4412 22.1007 11.0854C22.0654 10.7296 21.7879 10.4521 21.233 9.89715L13.6593 2.32349L6.08565 9.89715C5.53066 10.4521 5.25316 10.7296 5.21793 11.0854C5.1827 11.4412 5.40039 11.7677 5.83576 12.4208Z" stroke="#364C65" stroke-width="2"/>
<path d="M15.9343 12.1482C15.9343 13.4046 14.9158 14.4231 13.6594 14.4231C12.403 14.4231 11.3845 13.4046 11.3845 12.1482C11.3845 10.8918 12.403 9.87329 13.6594 9.87329C14.9158 9.87329 15.9343 10.8918 15.9343 12.1482Z" stroke="#364C65" stroke-width="2"/>
<path d="M13.6594 2.32349V9.96489" stroke="#364C65" stroke-width="2"/>
</svg>
