<svg width="40" height="24" viewBox="0 0 40 24" fill="none" xmlns="http://www.w3.org/2000/svg">
<path d="M4.96935 22.5573C4.09378 22.5591 3.23339 22.3452 2.47608 21.9375C1.71877 21.5298 1.09169 20.9429 0.6589 20.2367C0.232733 19.5355 0.0201916 18.74 0.0440444 17.9352C0.0678972 17.1306 0.327245 16.3471 0.794308 15.6686L9.671 2.73569C10.1253 2.04061 10.7703 1.46989 11.5402 1.08179C12.3101 0.693689 13.1771 0.502141 14.0529 0.526693C14.928 0.546145 15.7818 0.780987 16.527 1.20714C17.2721 1.63329 17.8819 2.23546 18.2938 2.95207C19.1212 4.40381 19.0178 6.1504 18.0267 7.51313L9.1557 20.4461C8.7058 21.0964 8.08629 21.631 7.35447 22C6.62264 22.3691 5.80227 22.5608 4.96935 22.5573Z" fill="#F62B54"/>
<path d="M20.0062 22.5574C18.2158 22.5574 16.5683 21.6693 15.7031 20.2419C15.2779 19.5426 15.0658 18.7491 15.0897 17.9465C15.1135 17.1439 15.3724 16.3624 15.8386 15.6859L24.6987 2.7823C25.1463 2.07743 25.7891 1.49654 26.5602 1.09984C27.3315 0.703087 28.203 0.505018 29.0845 0.526124C30.8901 0.562763 32.5263 1.4998 33.3538 2.96555C34.1757 4.43125 34.0553 6.18836 33.0341 7.54764L24.1758 20.4513C23.7273 21.0989 23.1103 21.6313 22.3815 21.9994C21.6528 22.3675 20.8359 22.5594 20.0062 22.5574Z" fill="#FFCC00"/>
<path d="M34.8352 23.4754C37.4319 23.4754 39.5369 21.4203 39.5369 18.8853C39.5369 16.3502 37.4319 14.2951 34.8352 14.2951C32.2385 14.2951 30.1334 16.3502 30.1334 18.8853C30.1334 21.4203 32.2385 23.4754 34.8352 23.4754Z" fill="#00CA72"/>
</svg>
