<svg width="35" height="38" viewBox="0 0 35 38" fill="none" xmlns="http://www.w3.org/2000/svg">
<path d="M35 17.0113H24.3379L33.5713 11.2227L31.7403 7.77733L22.5057 13.566L27.8356 3.54033L24.6633 1.55167L19.3322 11.5748V0H15.6678V11.5761L10.3367 1.55167L7.16328 3.54033L12.4932 13.5635L3.26091 7.77733L1.42869 11.2227L10.6621 17.0113H0V20.9899H10.6609L1.42869 26.7786L3.25975 30.2239L12.4943 24.4353L7.16328 34.4609L10.3356 36.4496L15.6678 26.4252V38H19.3322V26.1769L24.7612 36.3863L27.7364 34.5217L22.3062 24.3099L31.7379 30.2227L33.5701 26.7773L24.3379 20.9887H34.9988V17.0113H35ZM17.5 24.4087C16.8458 24.4088 16.1981 24.269 15.5937 23.9971C14.9894 23.7253 14.4402 23.3269 13.9776 22.8246C13.5151 22.3223 13.148 21.726 12.8976 21.0696C12.6472 20.4132 12.5184 19.7098 12.5182 18.9994C12.5181 18.2889 12.6469 17.5854 12.8972 16.929C13.1475 16.2726 13.5142 15.6761 13.9768 15.1738C14.4392 14.6714 14.9883 14.2728 15.5927 14.0008C16.197 13.7289 16.8447 13.5889 17.4988 13.5888C18.8199 13.5887 20.0869 14.1584 21.0212 15.1729C21.9555 16.1874 22.4805 17.5633 22.4806 18.9981C22.4807 20.4329 21.9561 21.809 21.022 22.8237C20.088 23.8384 18.821 24.4085 17.5 24.4087Z" fill="#5753F3"/>
</svg>
