<svg width="86" height="30" viewBox="0 0 86 30" fill="none" xmlns="http://www.w3.org/2000/svg">
<path d="M7.56 22.5C4.9 22.5 2.99 21.94 1.83 20.82C0.67 19.7 0.0900001 18.08 0.0900001 15.96V8.04C0.0900001 5.92 0.67 4.3 1.83 3.18C2.99 2.06 4.9 1.5 7.56 1.5H14.58V4.8H7.56C6.46 4.8 5.64 5.06 5.1 5.58C4.58 6.1 4.32 6.92 4.32 8.04V10.35H13.26V13.65H4.32V15.96C4.32 17.06 4.58 17.88 5.1 18.42C5.64 18.94 6.46 19.2 7.56 19.2H14.64V22.5H7.56ZM30.7113 18.15C30.7113 18.69 30.8113 19.13 31.0113 19.47C31.2313 19.81 31.6113 20.18 32.1513 20.58L29.5413 22.86C28.3813 22.28 27.5913 21.5 27.1713 20.52C26.6713 21.3 26.0413 21.89 25.2813 22.29C24.5213 22.67 23.5813 22.86 22.4613 22.86C20.5813 22.86 19.0813 22.24 17.9613 21C16.8613 19.74 16.3113 18.05 16.3113 15.93V14.97C16.3113 13.71 16.5413 12.56 17.0013 11.52C17.4613 10.46 18.1513 9.62 19.0713 9C20.0113 8.36 21.1413 8.04 22.4613 8.04C24.3413 8.04 25.7913 8.62 26.8113 9.78V4.71C26.8113 4.17 26.7013 3.73 26.4813 3.39C26.2813 3.05 25.9113 2.68 25.3713 2.28L27.9813 -1.78814e-06C29.0013 0.519999 29.7113 1.12 30.1113 1.8C30.5113 2.46 30.7113 3.39 30.7113 4.59V18.15ZM26.8113 13.5C26.3513 11.86 25.2813 11.04 23.6013 11.04C22.5213 11.04 21.6813 11.43 21.0813 12.21C20.5013 12.97 20.2113 13.89 20.2113 14.97V15.93C20.2113 17.03 20.5013 17.96 21.0813 18.72C21.6613 19.48 22.5013 19.86 23.6013 19.86C25.2813 19.86 26.3513 19.04 26.8113 17.4V13.5ZM47.5345 18.09C47.5345 18.63 47.6345 19.07 47.8345 19.41C48.0545 19.75 48.4345 20.12 48.9745 20.52L46.3645 22.8C45.7045 22.46 45.1845 22.1 44.8045 21.72C44.4245 21.34 44.1345 20.89 43.9345 20.37C43.0145 22.03 41.5845 22.86 39.6445 22.86C38.0645 22.86 36.8445 22.44 35.9845 21.6C35.1245 20.76 34.6945 19.56 34.6945 18V8.4H38.5945V17.64C38.5945 18.32 38.7845 18.86 39.1645 19.26C39.5645 19.66 40.1045 19.86 40.7845 19.86C42.1045 19.86 43.0545 19 43.6345 17.28V8.4H47.5345V18.09Z" fill="#D9ECFF"/>
<path d="M53.738 6.51C53.138 6.51 52.608 6.29 52.148 5.85C51.708 5.41 51.488 4.88 51.488 4.26C51.488 3.66 51.708 3.14 52.148 2.7C52.608 2.24 53.138 2.01 53.738 2.01C54.358 2.01 54.888 2.24 55.328 2.7C55.768 3.14 55.988 3.66 55.988 4.26C55.988 4.88 55.768 5.41 55.328 5.85C54.888 6.29 54.358 6.51 53.738 6.51ZM47.318 26.55H48.878C49.958 26.55 50.708 26.31 51.128 25.83C51.568 25.37 51.788 24.55 51.788 23.37V8.4H55.688V23.37C55.688 24.91 55.468 26.12 55.028 27C54.588 27.9 53.878 28.55 52.898 28.95C51.918 29.35 50.578 29.55 48.878 29.55H47.318V26.55ZM71.2495 18.15C71.2495 18.69 71.3495 19.13 71.5495 19.47C71.7695 19.81 72.1495 20.18 72.6895 20.58L70.0795 22.86C68.9395 22.28 68.1595 21.55 67.7395 20.67C67.2995 21.29 66.6995 21.81 65.9395 22.23C65.1795 22.65 64.2395 22.86 63.1195 22.86C61.6995 22.86 60.5695 22.5 59.7295 21.78C58.8895 21.04 58.4695 20 58.4695 18.66C58.4695 17.46 58.7795 16.54 59.3995 15.9C60.0395 15.24 60.7695 14.79 61.5895 14.55C62.4095 14.31 63.3195 14.14 64.3195 14.04L65.7595 13.89C66.3395 13.83 66.7395 13.73 66.9595 13.59C67.1995 13.45 67.3295 13.22 67.3495 12.9C67.3095 12.3 67.1095 11.79 66.7495 11.37C66.4095 10.95 65.7495 10.74 64.7695 10.74C64.1295 10.74 63.5695 10.86 63.0895 11.1C62.6095 11.34 62.1195 11.73 61.6195 12.27L58.9495 10.41C59.5295 9.65 60.2595 9.07 61.1395 8.67C62.0195 8.25 63.2295 8.04 64.7695 8.04C69.0895 8.04 71.2495 9.79 71.2495 13.29V18.15ZM64.1095 20.07C65.1495 20.07 65.9495 19.82 66.5095 19.32C67.0695 18.8 67.3495 18.17 67.3495 17.43V16.17C67.0295 16.29 66.4195 16.4 65.5195 16.5L64.6195 16.59C63.9395 16.65 63.3695 16.81 62.9095 17.07C62.4495 17.31 62.2195 17.77 62.2195 18.45C62.2195 18.97 62.3895 19.37 62.7295 19.65C63.0695 19.93 63.5295 20.07 64.1095 20.07ZM82.7841 8.04C83.8241 8.04 84.7041 8.32 85.4241 8.88L84.4641 12.12C84.0441 11.84 83.6441 11.64 83.2641 11.52C82.8841 11.4 82.4141 11.34 81.8541 11.34C80.5341 11.34 79.5841 12.22 79.0041 13.98V22.5H75.1041V12.75C75.1041 12.21 74.9941 11.77 74.7741 11.43C74.5741 11.09 74.2041 10.72 73.6641 10.32L76.2741 8.04C76.9541 8.4 77.4941 8.78 77.8941 9.18C78.2941 9.58 78.5841 10.06 78.7641 10.62C79.1641 9.84 79.6941 9.22 80.3541 8.76C81.0141 8.28 81.8241 8.04 82.7841 8.04Z" fill="#21B573"/>
</svg>
