<svg width="26" height="26" viewBox="0 0 26 26" fill="none" xmlns="http://www.w3.org/2000/svg">
<path d="M19.5292 4.36528C18.5509 3.62238 17.4638 3.03541 16.3073 2.62365C15.8833 2.4727 15.6713 2.39723 15.4776 2.49858C15.284 2.59994 15.2218 2.82976 15.0973 3.28942L12.5345 12.7555C12.4107 13.2127 12.3488 13.4413 12.4527 13.6213C12.5567 13.8014 12.7856 13.8621 13.2434 13.9835L22.8255 16.5245C23.286 16.6466 23.5162 16.7077 23.701 16.5903C23.8857 16.4729 23.9258 16.2517 24.006 15.8094C24.2225 14.615 24.2519 13.3927 24.0914 12.1858C23.887 10.6496 23.379 9.16831 22.5962 7.82647C21.8134 6.48463 20.7712 5.30851 19.5292 4.36528Z" stroke="#364C65" stroke-width="3"/>
<path d="M11.6879 7.65667C10.0887 7.44911 8.46302 7.70463 7.00751 8.39233C5.55201 9.08002 4.32904 10.1704 3.48658 11.5316C2.64411 12.8927 2.21825 14.4664 2.26051 16.0621C2.30278 17.6577 2.81135 19.2071 3.72472 20.5227C4.63808 21.8384 5.91708 22.8638 7.40699 23.4751C8.89691 24.0864 10.5339 24.2573 12.1199 23.9671C13.7059 23.6769 15.1729 22.9381 16.3435 21.84C17.5141 20.7419 18.3381 19.3317 18.7158 17.7798" stroke="#364C65" stroke-width="3"/>
</svg>
