<svg width="25" height="22" viewBox="0 0 25 22" fill="none" xmlns="http://www.w3.org/2000/svg">
<path d="M11.6223 1.05706C11.9431 0.183226 13.179 0.183227 13.4998 1.05706L15.8004 7.3238C15.9449 7.71749 16.3198 7.97918 16.7391 7.97918H23.8984C24.8964 7.97918 25.2787 9.28052 24.4392 9.82029L18.8658 13.4042C18.4719 13.6575 18.3065 14.1503 18.4679 14.5899L20.6447 20.5192C20.9752 21.4195 19.9717 22.2236 19.1651 21.705L13.1019 17.8061C12.7724 17.5943 12.3496 17.5943 12.0202 17.8061L5.95701 21.705C5.15039 22.2236 4.14691 21.4195 4.47741 20.5192L6.65415 14.5899C6.81555 14.1503 6.6502 13.6575 6.25627 13.4042L0.682833 9.82029C-0.156583 9.28052 0.225709 7.97918 1.22369 7.97918H8.38293C8.80231 7.97918 9.17714 7.71749 9.32167 7.3238L11.6223 1.05706Z" fill="#FBB03B"/>
</svg>
